<svg xmlns="http://www.w3.org/2000/svg" viewBox="0 0 1200 600">
  <!-- Base gradient background -->
  <defs>
    <linearGradient id="bg-gradient" x1="0%" y1="0%" x2="100%" y2="100%">
      <stop offset="0%" stop-color="#1a1a2e" />
      <stop offset="100%" stop-color="#16213e" />
    </linearGradient>
    
    <!-- Subtle pattern overlay -->
    <pattern id="pattern-grid" width="60" height="60" patternUnits="userSpaceOnUse">
      <path d="M 60 0 L 0 0 0 60" fill="none" stroke="#ffffff" stroke-width="0.5" stroke-opacity="0.05"/>
    </pattern>
    
    <!-- Cloth texture effect -->
    <filter id="noise" x="0%" y="0%" width="100%" height="100%">
      <feTurbulence type="fractalNoise" baseFrequency="0.65" numOctaves="3" stitchTiles="stitch" result="noise"/>
      <feColorMatrix type="matrix" values="1 0 0 0 0 0 1 0 0 0 0 0 1 0 0 0 0 0 0.05 0" in="noise" result="coloredNoise"/>
      <feComposite operator="in" in="coloredNoise" in2="SourceGraphic" result="monoNoise"/>
    </filter>
  </defs>
  
  <!-- Base background -->
  <rect width="100%" height="100%" fill="url(#bg-gradient)" />
  
  <!-- Pattern overlay -->
  <rect width="100%" height="100%" fill="url(#pattern-grid)" />
  
  <!-- Fabric texture overlay -->
  <rect width="100%" height="100%" fill="#ffffff" fill-opacity="0.02" filter="url(#noise)" />
  
  <!-- Decorative elements -->
  <!-- Abstract clothing shapes -->
  <path d="M -100,250 C 100,200 300,350 500,300 S 700,150 900,200 S 1100,300 1300,250" 
        stroke="#ffffff" stroke-width="1" stroke-opacity="0.1" fill="none" />
  
  <path d="M -100,300 C 100,350 300,300 500,350 S 700,250 900,300 S 1100,350 1300,300" 
        stroke="#ffffff" stroke-width="1" stroke-opacity="0.07" fill="none" />
  
  <!-- Abstract fashion elements -->
  <circle cx="200" cy="150" r="80" fill="#ffffff" fill-opacity="0.03" />
  <circle cx="950" cy="450" r="120" fill="#ffffff" fill-opacity="0.02" />
  
  <!-- Subtle geometric shapes -->
  <polygon points="600,50 650,150 550,150" fill="#ffffff" fill-opacity="0.04" />
  <polygon points="1050,400 1100,500 1000,500" fill="#ffffff" fill-opacity="0.03" />
  
  <!-- Fashion design elements -->
  <rect x="100" y="400" width="150" height="2" fill="#ffffff" fill-opacity="0.1" />
  <rect x="950" y="200" width="150" height="2" fill="#ffffff" fill-opacity="0.1" />
  
  <circle cx="100" cy="380" r="5" fill="#ffffff" fill-opacity="0.15" />
  <circle cx="950" cy="180" r="5" fill="#ffffff" fill-opacity="0.15" />
</svg>